<svg width="50" height="11" viewBox="0 0 50 11" fill="none" xmlns="http://www.w3.org/2000/svg">
<g clip-path="url(#clip0_3_22)">
<path d="M6.7729 2.54713L6.76539 2.54272L6.748 2.53741C6.75501 2.54332 6.76376 2.54674 6.7729 2.54713Z" fill="#0D0C22"/>
<path d="M6.77618 2.54594C6.77509 2.54581 6.77401 2.54555 6.77298 2.54518C6.77292 2.54589 6.77292 2.54661 6.77298 2.54732C6.77416 2.54717 6.77526 2.54669 6.77618 2.54594Z" fill="#0D0C22"/>
<path d="M6.77293 2.54696H6.77363V2.54653L6.77293 2.54696Z" fill="#0D0C22"/>
<path d="M6.87566 3.32799L6.88832 3.32077L6.89303 3.31812L6.89732 3.31355C6.88928 3.31702 6.88194 3.32191 6.87566 3.32799Z" fill="#0D0C22"/>
<path d="M6.79482 2.56422L6.78244 2.55244L6.77405 2.54787C6.77856 2.55584 6.78602 2.5617 6.79482 2.56422Z" fill="#0D0C22"/>
<path d="M3.68151 10.1552C3.67163 10.1595 3.66297 10.1662 3.65633 10.1747L3.66413 10.1697C3.66943 10.1648 3.67694 10.1591 3.68151 10.1552Z" fill="#0D0C22"/>
<path d="M5.48937 9.79953C5.48937 9.78833 5.48392 9.7904 5.48526 9.83018C5.48526 9.82693 5.48658 9.82369 5.48716 9.82059C5.48791 9.81353 5.48849 9.8066 5.48937 9.79953Z" fill="#0D0C22"/>
<path d="M5.30186 10.1552C5.29198 10.1595 5.28332 10.1662 5.27667 10.1747L5.28448 10.1697C5.28978 10.1648 5.29729 10.1591 5.30186 10.1552Z" fill="#0D0C22"/>
<path d="M2.40832 10.2398C2.40081 10.2333 2.39163 10.229 2.38181 10.2274C2.38976 10.2313 2.39771 10.2351 2.40301 10.238L2.40832 10.2398Z" fill="#0D0C22"/>
<path d="M2.12183 9.96544C2.12067 9.95383 2.11711 9.9426 2.11137 9.93244C2.11544 9.94302 2.11883 9.95384 2.12154 9.96485L2.12183 9.96544Z" fill="#0D0C22"/>
<path d="M4.04625 5.05831C3.65294 5.22668 3.20658 5.41759 2.62811 5.41759C2.38611 5.41711 2.14529 5.3839 1.91219 5.3189L2.31228 9.42661C2.32643 9.59829 2.40465 9.75838 2.53139 9.87507C2.65812 9.99177 2.82411 10.0565 2.99638 10.0565C2.99638 10.0565 3.56367 10.086 3.75296 10.086C3.95669 10.086 4.56758 10.0565 4.56758 10.0565C4.73983 10.0565 4.90578 9.99171 5.03248 9.87503C5.15919 9.75833 5.23737 9.59827 5.25154 9.42661L5.68006 4.88743C5.48856 4.82202 5.29529 4.77856 5.07742 4.77856C4.7006 4.77841 4.39699 4.9082 4.04625 5.05831Z" fill="#FFDD00"/>
<path d="M0.673676 3.30578L0.680452 3.31212L0.684871 3.31477C0.681468 3.31139 0.677715 3.30837 0.673676 3.30578Z" fill="#0D0C22"/>
<path d="M7.53021 2.92666L7.46997 2.62276C7.4159 2.3501 7.2932 2.09246 7.01331 1.9939C6.92359 1.96238 6.8218 1.94882 6.75301 1.88357C6.68422 1.81831 6.66389 1.71696 6.64798 1.62298C6.61852 1.45048 6.59083 1.27784 6.56063 1.10563C6.53455 0.957581 6.51392 0.79127 6.44602 0.655451C6.35764 0.473082 6.17424 0.366431 5.99187 0.295869C5.89842 0.260985 5.80305 0.231475 5.70624 0.207484C5.25061 0.0872795 4.77155 0.0430869 4.30282 0.0178971C3.7402 -0.0131481 3.17609 -0.00379466 2.6148 0.0458857C2.19704 0.0838914 1.75703 0.129852 1.36003 0.274362C1.21493 0.327246 1.06541 0.390736 0.955074 0.502839C0.819698 0.640572 0.775505 0.853581 0.87435 1.02534C0.944616 1.14732 1.06364 1.23349 1.18988 1.2905C1.35432 1.36396 1.52605 1.41985 1.70223 1.45726C2.19277 1.56568 2.70084 1.60825 3.20198 1.62636C3.75742 1.64878 4.31377 1.63062 4.86657 1.57201C5.00327 1.55698 5.13973 1.53897 5.27594 1.51794C5.43636 1.49334 5.53934 1.28358 5.49205 1.13745C5.43548 0.962737 5.28346 0.894975 5.11155 0.921343C5.08621 0.92532 5.06102 0.929003 5.03568 0.932687L5.01741 0.935338C4.95917 0.942703 4.90095 0.949578 4.84271 0.955961C4.7224 0.968924 4.60181 0.979531 4.48092 0.98778C4.21016 1.00664 3.93867 1.01533 3.66733 1.01577C3.4007 1.01577 3.13393 1.00825 2.86788 0.990726C2.7465 0.982772 2.62541 0.972655 2.50462 0.96038C2.44968 0.954635 2.39488 0.948596 2.34007 0.941819L2.28792 0.935191L2.27659 0.93357L2.22252 0.925763C2.11204 0.909117 2.00156 0.889966 1.89225 0.86684C1.88123 0.864392 1.87136 0.858255 1.86428 0.849443C1.85722 0.840632 1.85336 0.829673 1.85336 0.818375C1.85336 0.807076 1.85722 0.796117 1.86428 0.787305C1.87136 0.778492 1.88123 0.772357 1.89225 0.76991H1.89432C1.98904 0.749728 2.08449 0.732493 2.18025 0.717468C2.21216 0.712459 2.24417 0.707549 2.27629 0.702737H2.27718C2.33713 0.69876 2.39737 0.688006 2.45704 0.680934C2.97611 0.626943 3.49826 0.608536 4.01984 0.625842C4.27306 0.633207 4.52614 0.648085 4.77818 0.673717C4.83239 0.679315 4.88632 0.685207 4.94023 0.691836C4.96085 0.69434 4.98161 0.697286 5.00239 0.69979L5.04423 0.70583C5.1662 0.723999 5.28753 0.746046 5.40823 0.771972C5.58706 0.810862 5.81672 0.82353 5.89626 1.01945C5.9216 1.08162 5.93309 1.1507 5.94709 1.21596L5.96491 1.2992C5.96538 1.30068 5.96572 1.30221 5.96594 1.30375C6.00807 1.50017 6.05025 1.69658 6.09248 1.893C6.09557 1.90751 6.09565 1.9225 6.0927 1.93704C6.08973 1.95157 6.08382 1.96535 6.07531 1.9775C6.06679 1.98965 6.05586 1.99992 6.0432 2.00765C6.03055 2.01539 6.01643 2.02044 6.00174 2.02248H6.00055L5.97478 2.02601L5.94929 2.02941C5.86857 2.03991 5.78774 2.04974 5.70682 2.05886C5.54743 2.07703 5.3878 2.09274 5.22792 2.10601C4.91023 2.13242 4.59189 2.14975 4.27292 2.158C4.11039 2.16233 3.9479 2.16433 3.78548 2.16404C3.13893 2.16353 2.49295 2.12595 1.85071 2.0515C1.78118 2.04325 1.71166 2.03441 1.64212 2.02543C1.69604 2.03235 1.60294 2.02012 1.58408 2.01747C1.53989 2.01129 1.49569 2.00485 1.45151 1.99818C1.30317 1.97593 1.15571 1.94852 1.00766 1.92451C0.828683 1.89506 0.65751 1.90979 0.495618 1.99818C0.362728 2.07089 0.255173 2.18241 0.1873 2.31783C0.117475 2.4622 0.096705 2.61937 0.0654754 2.77449C0.0342459 2.92961 -0.0143663 3.09651 0.00404735 3.25574C0.0436735 3.59942 0.283935 3.87872 0.629521 3.94118C0.954633 4.00011 1.28151 4.04783 1.60927 4.08849C2.8968 4.24617 4.19754 4.26504 5.4891 4.14476C5.59428 4.13494 5.6993 4.12424 5.8042 4.11265C5.83695 4.10904 5.8701 4.11282 5.90121 4.1237C5.93232 4.13456 5.96061 4.15225 5.984 4.17547C6.00739 4.19869 6.02529 4.22685 6.03639 4.25788C6.04748 4.28892 6.0515 4.32204 6.04814 4.35482L6.01544 4.67272C5.94954 5.31509 5.88364 5.9574 5.81775 6.59966C5.749 7.27414 5.67982 7.94857 5.61018 8.62295C5.59055 8.81288 5.5709 9.00277 5.55126 9.1926C5.53241 9.37954 5.52976 9.57237 5.49426 9.75709C5.43828 10.0476 5.24162 10.226 4.95467 10.2912C4.69177 10.3511 4.42321 10.3825 4.1536 10.3849C3.8547 10.3865 3.55596 10.3733 3.25708 10.3749C2.93801 10.3767 2.54719 10.3472 2.30089 10.1097C2.08449 9.90115 2.05459 9.57457 2.02513 9.29218C1.98585 8.91831 1.94691 8.54448 1.90831 8.17071L1.69177 6.09234L1.55168 4.74755C1.54932 4.72531 1.54697 4.70336 1.54476 4.68097C1.52796 4.52054 1.41438 4.36352 1.2354 4.37161C1.0822 4.37839 0.908083 4.50861 0.926055 4.68097L1.02991 5.67796L1.24469 7.74029C1.30586 8.32607 1.3669 8.91198 1.42779 9.49797C1.43958 9.61022 1.45062 9.72276 1.463 9.83501C1.53032 10.4484 1.99876 10.779 2.57887 10.8721C2.91768 10.9266 3.26473 10.9378 3.60855 10.9434C4.0493 10.9504 4.49447 10.9674 4.928 10.8875C5.57041 10.7697 6.05241 10.3407 6.1212 9.67533C6.14085 9.48324 6.16048 9.2911 6.18013 9.09891C6.24543 8.46332 6.31064 7.82768 6.37575 7.192L6.58876 5.11493L6.68642 4.16302C6.69129 4.11583 6.71123 4.07144 6.74327 4.03645C6.77533 4.00146 6.81779 3.97772 6.86438 3.96872C7.04807 3.93293 7.22366 3.87179 7.35433 3.732C7.56233 3.50941 7.60372 3.21921 7.53021 2.92666ZM0.620094 3.13201C0.622893 3.13068 0.617737 3.1547 0.615528 3.16589C0.615085 3.14896 0.615969 3.13393 0.620094 3.13201ZM0.637919 3.2699C0.639392 3.26887 0.64381 3.27475 0.648377 3.28182C0.641454 3.27534 0.637035 3.27048 0.637772 3.2699H0.637919ZM0.655448 3.29302C0.66517 3.31055 0.661782 3.30378 0.655448 3.29302V3.29302ZM0.690655 3.3216H0.691539C0.691539 3.32263 0.693159 3.32366 0.693748 3.32469C0.692772 3.32355 0.691686 3.32252 0.690508 3.3216H0.690655ZM6.85583 3.27888C6.78984 3.34163 6.69041 3.3708 6.59214 3.38538C5.49027 3.5489 4.37236 3.63169 3.2584 3.59515C2.46117 3.56789 1.67232 3.47936 0.88304 3.36786C0.805703 3.35696 0.721884 3.3428 0.668706 3.2858C0.568536 3.17827 0.617737 2.96172 0.64381 2.83179C0.667674 2.71277 0.71334 2.55411 0.854904 2.53718C1.07587 2.51125 1.33248 2.6045 1.55109 2.63765C1.81428 2.67781 2.07845 2.70997 2.34361 2.73413C3.47523 2.83724 4.62587 2.82119 5.75248 2.67034C5.95783 2.64274 6.16245 2.61069 6.36632 2.57415C6.54796 2.54159 6.74933 2.48046 6.85908 2.66858C6.93435 2.79674 6.94436 2.96821 6.93273 3.11301C6.92914 3.1761 6.90158 3.23544 6.85568 3.27888H6.85583Z" fill="#0D0C22"/>
<path fill-rule="evenodd" clip-rule="evenodd" d="M13.5391 6.34035C13.4748 6.46316 13.3863 6.57009 13.2738 6.66084C13.1612 6.75166 13.0299 6.8256 12.8797 6.88253C12.7297 6.93959 12.5786 6.97787 12.4267 6.9974C12.2748 7.01698 12.1273 7.01529 11.9844 6.99204C11.8414 6.96893 11.7198 6.92176 11.6198 6.85047L11.7324 5.6806C11.836 5.64501 11.9664 5.60848 12.1238 5.57107C12.281 5.53374 12.4427 5.50697 12.6089 5.49097C12.7751 5.47491 12.9324 5.47681 13.0808 5.49632C13.229 5.51591 13.3461 5.56308 13.4319 5.6379C13.4783 5.6806 13.5178 5.72688 13.5499 5.77676C13.582 5.82664 13.6017 5.87828 13.6089 5.93169C13.6267 6.08126 13.6035 6.21748 13.5391 6.34035ZM11.9039 3.84832C11.979 3.80204 12.0692 3.76104 12.1746 3.72539C12.2801 3.68988 12.3882 3.66486 12.499 3.65064C12.6097 3.63647 12.7179 3.63458 12.8235 3.64528C12.9288 3.65599 13.0218 3.68534 13.1022 3.73338C13.1827 3.7815 13.2425 3.85097 13.2817 3.94172C13.3211 4.0326 13.3319 4.14747 13.314 4.28633C13.2997 4.39673 13.2558 4.49025 13.1827 4.56677C13.1094 4.64342 13.0199 4.70746 12.9146 4.75911C12.8091 4.81082 12.6974 4.85175 12.5795 4.88191C12.4615 4.91227 12.3479 4.93457 12.239 4.94873C12.13 4.96303 12.0353 4.97197 11.9549 4.97543C11.8744 4.97903 11.8217 4.98079 11.7967 4.98079L11.9039 3.84832ZM14.1181 5.58442C14.0609 5.45986 13.9842 5.35035 13.8876 5.25587C13.7912 5.16154 13.6767 5.09302 13.5445 5.05025C13.6017 5.00396 13.658 4.93098 13.7134 4.83122C13.7688 4.73159 13.8162 4.62289 13.8555 4.50538C13.8947 4.38778 13.9216 4.26946 13.9358 4.15011C13.9501 4.03084 13.9447 3.92843 13.9199 3.8429C13.859 3.62929 13.7634 3.46189 13.6329 3.34078C13.5024 3.21974 13.3506 3.13604 13.1773 3.08969C13.0038 3.04354 12.8127 3.03364 12.6036 3.06034C12.3945 3.08705 12.1809 3.13957 11.9629 3.21792C11.9629 3.20016 11.9647 3.18145 11.9683 3.16186C11.9718 3.14235 11.9736 3.12182 11.9736 3.1004C11.9736 3.04699 11.9468 3.00077 11.8932 2.96154C11.8396 2.92236 11.7779 2.89926 11.7083 2.89208C11.6386 2.88502 11.5706 2.90006 11.5045 2.93748C11.4383 2.97489 11.3928 3.04354 11.3678 3.1431C11.3392 3.46365 11.3106 3.79668 11.282 4.14205C11.2534 4.48754 11.223 4.83657 11.1909 5.18918C11.1587 5.54173 11.1265 5.89163 11.0944 6.23882C11.0622 6.58609 11.03 6.91994 10.9978 7.24042C11.0086 7.33659 11.0354 7.41141 11.0783 7.46481C11.1212 7.51829 11.1712 7.55035 11.2284 7.56099C11.2856 7.5717 11.3455 7.56179 11.408 7.53157C11.4705 7.50142 11.525 7.44876 11.5716 7.374C11.7145 7.45234 11.8753 7.50311 12.0541 7.52628C12.2328 7.54939 12.4141 7.54939 12.5982 7.52628C12.7822 7.50311 12.9637 7.45953 13.1424 7.39535C13.3211 7.33131 13.4837 7.25113 13.6303 7.15503C13.7768 7.05887 13.9001 6.94928 14.0002 6.82647C14.1003 6.70354 14.1664 6.57091 14.1986 6.42852C14.2308 6.28248 14.2396 6.1365 14.2254 5.99044C14.2111 5.84447 14.1753 5.7092 14.1181 5.58442Z" fill="#0D0C23"/>
<path fill-rule="evenodd" clip-rule="evenodd" d="M19.3484 8.40491C19.3287 8.52244 19.3009 8.64618 19.2653 8.77624C19.2294 8.90615 19.1875 9.02462 19.1392 9.13149C19.091 9.2383 19.0374 9.32457 18.9785 9.39052C18.9194 9.45639 18.856 9.48405 18.7881 9.4734C18.7345 9.46615 18.7005 9.43233 18.6863 9.37188C18.672 9.31122 18.672 9.23647 18.6863 9.14749C18.7005 9.05844 18.7282 8.95779 18.7694 8.84563C18.8104 8.73347 18.8605 8.62212 18.9194 8.51179C18.9785 8.40133 19.0455 8.29546 19.1205 8.19394C19.1956 8.09249 19.2742 8.00784 19.3564 7.94021C19.3743 7.96156 19.3823 8.01495 19.3805 8.10049C19.3786 8.18594 19.368 8.28746 19.3484 8.40491ZM21.1659 6.08652C21.1177 6.03311 21.0587 6.00289 20.989 5.9957C20.9193 5.98859 20.8486 6.02776 20.7772 6.11323C20.7306 6.19868 20.6717 6.28062 20.6003 6.35896C20.5287 6.43737 20.4545 6.50854 20.3777 6.57264C20.3009 6.63668 20.2276 6.69198 20.158 6.73821C20.0883 6.78456 20.0337 6.81838 19.9944 6.83973C19.9801 6.72581 19.9721 6.60293 19.9703 6.47112C19.9683 6.33937 19.9711 6.20586 19.9783 6.07053C19.989 5.87819 20.0113 5.68417 20.0453 5.48823C20.0793 5.29237 20.1285 5.10003 20.1927 4.91122C20.1927 4.81161 20.1695 4.73054 20.1231 4.6682C20.0765 4.60591 20.0203 4.56668 19.9542 4.55068C19.888 4.53468 19.8202 4.54357 19.7504 4.57738C19.6807 4.61127 19.6209 4.67274 19.5709 4.76165C19.5279 4.87924 19.4788 5.01098 19.4235 5.15696C19.368 5.30301 19.3055 5.4517 19.2358 5.60304C19.1661 5.75451 19.0883 5.90136 19.0025 6.04376C18.9168 6.18628 18.823 6.31275 18.721 6.42307C18.6192 6.53347 18.5084 6.61988 18.3887 6.68216C18.2689 6.74452 18.1395 6.7721 18 6.76498C17.9356 6.74715 17.8892 6.69911 17.8605 6.6207C17.832 6.54242 17.8149 6.44442 17.8097 6.32691C17.8043 6.20939 17.8097 6.08028 17.8257 5.93959C17.8418 5.79897 17.8633 5.65915 17.89 5.52029C17.9169 5.38136 17.9464 5.24961 17.9785 5.12498C18.0107 5.00034 18.041 4.89524 18.0697 4.80977C18.1126 4.70656 18.1126 4.62007 18.0697 4.55068C18.0267 4.48121 17.9679 4.43499 17.8928 4.41175C17.8177 4.38864 17.739 4.38959 17.6569 4.41446C17.5746 4.43939 17.5156 4.49456 17.48 4.58003C17.4192 4.72614 17.3638 4.88987 17.3137 5.0715C17.2636 5.25314 17.2234 5.44106 17.1931 5.63509C17.1626 5.82926 17.1456 6.0216 17.1421 6.2121C17.1419 6.2245 17.1425 6.23629 17.1425 6.24863C17.0645 6.45567 16.9902 6.61216 16.9196 6.71686C16.8285 6.85228 16.7257 6.91103 16.6114 6.89314C16.5613 6.87179 16.5283 6.82198 16.5122 6.74357C16.496 6.66529 16.4906 6.56913 16.496 6.45506C16.5016 6.34121 16.5149 6.2121 16.5362 6.06782C16.5578 5.9236 16.5846 5.77402 16.6167 5.6191C16.649 5.4641 16.6829 5.30844 16.7185 5.15168C16.7543 4.995 16.7864 4.84718 16.8152 4.70825C16.8116 4.58361 16.7749 4.4884 16.7052 4.42246C16.6355 4.35665 16.538 4.33083 16.4131 4.345C16.3273 4.38064 16.2637 4.42699 16.2226 4.48393C16.1815 4.54086 16.1485 4.61391 16.1235 4.7029C16.1091 4.74925 16.0877 4.84183 16.0591 4.98076C16.0305 5.11956 15.9939 5.27902 15.9493 5.45882C15.9045 5.63875 15.8519 5.82655 15.7911 6.02241C15.7303 6.21826 15.6624 6.39556 15.5874 6.55394C15.5122 6.71239 15.4301 6.83973 15.3407 6.9359C15.2514 7.03199 15.1548 7.07124 15.0512 7.05341C14.994 7.0427 14.9574 6.98395 14.9414 6.87714C14.9253 6.77027 14.9225 6.63859 14.9333 6.48183C14.944 6.32515 14.9655 6.15327 14.9976 5.96636C15.0297 5.77938 15.0627 5.60223 15.0968 5.43476C15.1307 5.26743 15.162 5.11956 15.1907 4.9914C15.2192 4.86318 15.2389 4.77771 15.2496 4.73502C15.2496 4.63173 15.2263 4.54899 15.1799 4.48656C15.1334 4.42435 15.0771 4.38511 15.011 4.36905C14.9448 4.35305 14.877 4.36194 14.8073 4.39575C14.7376 4.42964 14.6777 4.49111 14.6276 4.58003C14.6097 4.67619 14.5865 4.78755 14.5579 4.91393C14.5293 5.04033 14.5017 5.17031 14.4749 5.30389C14.4481 5.43748 14.423 5.56833 14.3999 5.69657C14.3766 5.82479 14.3596 5.93695 14.3489 6.03311C14.3417 6.10786 14.3337 6.19962 14.3248 6.3082C14.3158 6.41691 14.3113 6.53171 14.3113 6.65275C14.3113 6.77392 14.3202 6.89408 14.3382 7.01336C14.356 7.1327 14.3882 7.24222 14.4346 7.34185C14.4811 7.44161 14.5463 7.52348 14.6304 7.58759C14.7143 7.6517 14.8207 7.68728 14.9494 7.69447C15.0816 7.70152 15.1968 7.69182 15.2952 7.66505C15.3935 7.63835 15.4827 7.59647 15.5632 7.53948C15.6437 7.48261 15.7168 7.4149 15.783 7.33649C15.8491 7.25822 15.9144 7.17276 15.9788 7.08011C16.0395 7.21553 16.1181 7.3205 16.2147 7.39532C16.3111 7.47007 16.4131 7.51466 16.5203 7.52883C16.6274 7.54299 16.7365 7.52802 16.8473 7.48342C16.958 7.43896 17.058 7.36326 17.1475 7.25639C17.2064 7.19086 17.2619 7.11638 17.314 7.03403C17.3361 7.07259 17.3596 7.10981 17.3861 7.14416C17.4737 7.25822 17.5926 7.33649 17.7427 7.37926C17.9035 7.42203 18.0607 7.42921 18.2144 7.40068C18.3681 7.37221 18.5146 7.3205 18.654 7.24575C18.7935 7.17094 18.923 7.08107 19.0428 6.97595C19.1625 6.8709 19.267 6.76145 19.3564 6.64739C19.3527 6.72933 19.351 6.80686 19.351 6.87979C19.351 6.95284 19.3492 7.03199 19.3456 7.11753C19.1669 7.24222 18.9981 7.39179 18.8391 7.56625C18.6799 7.74069 18.5405 7.92679 18.4208 8.12447C18.3012 8.3221 18.2072 8.52244 18.1395 8.72541C18.0715 8.92852 18.0384 9.11807 18.0402 9.29442C18.042 9.47068 18.084 9.62467 18.1661 9.75641C18.2484 9.88823 18.3823 9.98257 18.5682 10.0396C18.7613 10.1002 18.931 10.1018 19.0776 10.0449C19.2242 9.98792 19.3519 9.89352 19.4609 9.76177C19.5699 9.63002 19.6593 9.47068 19.7291 9.28371C19.7988 9.09672 19.8542 8.90175 19.8952 8.69877C19.9363 8.4958 19.9622 8.29621 19.9729 8.10049C19.9837 7.90455 19.9837 7.72998 19.9729 7.57688C20.2803 7.44872 20.5323 7.28668 20.7288 7.09076C20.9254 6.89503 21.088 6.6884 21.2167 6.47112C21.2561 6.41772 21.2695 6.35361 21.257 6.27885C21.2444 6.20404 21.2141 6.13992 21.1659 6.08652Z" fill="#0D0C23"/>
<path fill-rule="evenodd" clip-rule="evenodd" d="M27.929 5.74468C27.9397 5.66282 27.9557 5.57641 27.9772 5.48559C27.9986 5.39478 28.0254 5.30662 28.0577 5.22115C28.0897 5.13569 28.1272 5.06182 28.1702 4.99947C28.2131 4.93719 28.2587 4.89267 28.3069 4.8659C28.3552 4.83926 28.4043 4.8419 28.4544 4.87389C28.508 4.90602 28.541 4.97365 28.5536 5.07686C28.566 5.18029 28.5536 5.29062 28.5161 5.40813C28.4784 5.52572 28.4115 5.63605 28.3149 5.73934C28.2185 5.84268 28.088 5.91025 27.9236 5.94231C27.9164 5.89256 27.9182 5.82662 27.929 5.74468ZM29.7866 5.96366C29.7276 5.94597 29.6714 5.94415 29.6178 5.95837C29.5642 5.97261 29.5301 6.01001 29.516 6.0706C29.4872 6.18453 29.4417 6.30116 29.3791 6.42043C29.3166 6.53978 29.2397 6.65283 29.1487 6.7597C29.0576 6.86651 28.9547 6.96091 28.8404 7.04278C28.726 7.12472 28.6063 7.18348 28.4812 7.21906C28.356 7.2583 28.2523 7.2627 28.1702 7.2324C28.088 7.20225 28.0228 7.15054 27.9746 7.07755C27.9264 7.00456 27.8915 6.91639 27.87 6.81311C27.8485 6.70982 27.8359 6.60302 27.8325 6.49255C28.0361 6.50685 28.2176 6.47039 28.3767 6.38303C28.5356 6.29587 28.6705 6.18005 28.7814 6.03583C28.8922 5.89161 28.9761 5.72957 29.0333 5.54971C29.0904 5.36991 29.1227 5.19093 29.1299 5.01282C29.1334 4.84543 29.1084 4.70392 29.0548 4.58817C29.0012 4.47249 28.9288 4.38242 28.8376 4.31837C28.7466 4.25426 28.642 4.21685 28.524 4.20621C28.4062 4.1955 28.2863 4.21156 28.1648 4.25426C28.0182 4.30414 27.8941 4.38513 27.7923 4.49736C27.6903 4.60952 27.6054 4.73956 27.5375 4.88731C27.4697 5.03513 27.416 5.19446 27.3767 5.36537C27.3374 5.53636 27.3088 5.70464 27.291 5.87027C27.2749 6.01889 27.2663 6.16101 27.2633 6.29818C27.2556 6.3156 27.2481 6.33233 27.24 6.35097C27.1846 6.4775 27.1202 6.60126 27.047 6.72229C26.9737 6.8434 26.8924 6.94492 26.8031 7.02679C26.7137 7.10873 26.6208 7.13719 26.5242 7.11226C26.4671 7.09809 26.4358 7.03208 26.4304 6.91463C26.4252 6.79705 26.4313 6.65107 26.4491 6.47655C26.4671 6.30211 26.4876 6.11323 26.5109 5.91025C26.5341 5.70728 26.5457 5.51325 26.5457 5.32803C26.5457 5.16775 26.5154 5.01378 26.4545 4.8659C26.3937 4.71822 26.3106 4.59528 26.2053 4.49736C26.0998 4.39935 25.9775 4.33436 25.8381 4.30237C25.6986 4.27025 25.5486 4.29166 25.3877 4.36642C25.2268 4.44124 25.0991 4.54628 25.0044 4.68162C24.9096 4.81703 24.8229 4.95942 24.7443 5.10899C24.7156 4.995 24.6738 4.88914 24.6184 4.79115C24.5628 4.69321 24.4951 4.60776 24.4146 4.53469C24.3341 4.46178 24.2438 4.40478 24.1439 4.36378C24.0438 4.3229 23.9382 4.30237 23.8275 4.30237C23.7203 4.30237 23.6211 4.3229 23.53 4.36378C23.4388 4.40478 23.3557 4.45723 23.2806 4.52135C23.2056 4.58552 23.1377 4.65757 23.0769 4.73774C23.0162 4.81784 22.9625 4.89714 22.9162 4.97541C22.9089 4.88284 22.9008 4.80186 22.8919 4.73232C22.8831 4.66291 22.8669 4.60416 22.8437 4.55611C22.8205 4.508 22.7875 4.47154 22.7445 4.44659C22.7016 4.42172 22.6409 4.40918 22.5624 4.40918C22.5229 4.40918 22.4836 4.41718 22.4444 4.43317C22.4049 4.44923 22.37 4.47154 22.3398 4.5C22.3093 4.5286 22.2862 4.56323 22.2701 4.60416C22.2539 4.64509 22.2496 4.69233 22.2567 4.74574C22.2601 4.78497 22.2701 4.83208 22.2862 4.88731C22.3022 4.94255 22.3173 5.01473 22.3317 5.10363C22.346 5.19269 22.3576 5.30044 22.3665 5.42684C22.3755 5.5533 22.3781 5.70823 22.3745 5.89161C22.371 6.07508 22.3576 6.28958 22.3344 6.53531C22.3111 6.78105 22.2744 7.06596 22.2245 7.38998C22.2173 7.4648 22.2459 7.52539 22.3103 7.57167C22.3745 7.61789 22.4478 7.64459 22.5301 7.65177C22.6123 7.6589 22.6901 7.64459 22.7633 7.60908C22.8365 7.57337 22.8786 7.51108 22.8893 7.4221C22.9 7.25471 22.9206 7.07667 22.9509 6.88786C22.9813 6.69918 23.0188 6.5122 23.0636 6.32698C23.1082 6.14183 23.159 5.96555 23.2164 5.79809C23.2734 5.6307 23.337 5.48296 23.4067 5.35474C23.4764 5.2265 23.5488 5.12418 23.6238 5.04759C23.6988 4.97101 23.7774 4.93272 23.8597 4.93272C23.9598 4.93272 24.0374 4.97806 24.0929 5.06888C24.1482 5.15975 24.1876 5.27645 24.2108 5.41878C24.2341 5.5613 24.2448 5.71717 24.2431 5.88627C24.2412 6.05542 24.2341 6.21835 24.2216 6.37503C24.209 6.53179 24.1948 6.67153 24.1787 6.7944C24.1626 6.91727 24.151 7.00192 24.1439 7.04814C24.1439 7.13008 24.1751 7.195 24.2376 7.24311C24.3002 7.29117 24.3699 7.3197 24.4467 7.32858C24.5236 7.33752 24.5959 7.32322 24.6639 7.28581C24.7318 7.2484 24.771 7.18531 24.7818 7.09618C24.8176 6.8398 24.8668 6.58255 24.9292 6.32433C24.9917 6.06613 25.0633 5.83469 25.1438 5.62989C25.2242 5.42508 25.3135 5.25769 25.4119 5.1277C25.5101 4.99778 25.6147 4.93272 25.7255 4.93272C25.7826 4.93272 25.8265 4.97196 25.8568 5.05024C25.8871 5.12858 25.9024 5.23539 25.9024 5.37072C25.9024 5.47048 25.8943 5.57289 25.8783 5.67793C25.8622 5.78298 25.8435 5.89161 25.8219 6.00378C25.8006 6.11601 25.7817 6.23081 25.7657 6.34833C25.7496 6.46591 25.7415 6.58871 25.7415 6.71693C25.7415 6.80599 25.7504 6.90927 25.7683 7.02679C25.7862 7.14424 25.8201 7.25566 25.8701 7.36064C25.9202 7.46574 25.989 7.55474 26.0766 7.62771C26.1642 7.70071 26.2758 7.73724 26.4116 7.73724C26.6154 7.73724 26.7959 7.69359 26.9532 7.60637C27.1105 7.51915 27.2454 7.40523 27.358 7.26453C27.3638 7.25715 27.3692 7.24928 27.3748 7.24196C27.3834 7.26277 27.3911 7.28479 27.4008 7.30459C27.4777 7.46127 27.5823 7.58231 27.7146 7.66784C27.8466 7.7533 28.0022 7.80047 28.181 7.80941C28.3597 7.81823 28.5543 7.78529 28.7654 7.71054C28.9225 7.65354 29.0592 7.58231 29.1755 7.49686C29.2916 7.41139 29.3961 7.30723 29.4891 7.18436C29.582 7.06149 29.6668 6.91992 29.7438 6.7597C29.8207 6.59935 29.8983 6.41603 29.977 6.2094C29.9912 6.15254 29.9778 6.10177 29.9368 6.05718C29.8957 6.01272 29.8456 5.98155 29.7866 5.96366Z" fill="#0D0C23"/>
<path fill-rule="evenodd" clip-rule="evenodd" d="M32.7005 5.36788C32.6825 5.47299 32.6584 5.58881 32.6281 5.71513C32.5976 5.8416 32.5592 5.97246 32.5128 6.10781C32.4663 6.24315 32.4092 6.36513 32.3413 6.47371C32.2733 6.58241 32.1956 6.66868 32.1081 6.7328C32.0204 6.7969 31.9195 6.82361 31.8051 6.8129C31.7479 6.80585 31.7041 6.76668 31.6738 6.69538C31.6433 6.62423 31.6272 6.53334 31.6254 6.42294C31.6236 6.31262 31.6335 6.19151 31.655 6.05969C31.6764 5.928 31.7095 5.79884 31.7543 5.67238C31.7989 5.54605 31.8534 5.42935 31.9176 5.32247C31.982 5.21566 32.0561 5.13285 32.1402 5.07409C32.2242 5.01533 32.3163 4.98781 32.4163 4.99127C32.5163 4.99487 32.6235 5.04467 32.7381 5.14085C32.7307 5.1872 32.7184 5.2629 32.7005 5.36788ZM34.6064 5.77654C34.551 5.74808 34.4938 5.7419 34.4349 5.7579C34.3759 5.7739 34.3338 5.82826 34.3088 5.92082C34.2946 6.02058 34.2624 6.13803 34.2124 6.27337C34.1623 6.40872 34.1006 6.537 34.0275 6.65798C33.9541 6.77908 33.8701 6.87972 33.7754 6.95983C33.6806 7.04001 33.5798 7.07653 33.4725 7.06928C33.3831 7.06223 33.3205 7.01683 33.2848 6.93312C33.249 6.84944 33.2303 6.74446 33.2286 6.61792C33.2267 6.49159 33.2393 6.34914 33.266 6.19062C33.2929 6.03218 33.325 5.87461 33.3626 5.71779C33.4001 5.56116 33.4385 5.41064 33.4779 5.26642C33.5171 5.12221 33.5493 5.00021 33.5744 4.90053C33.603 4.81148 33.594 4.73584 33.5475 4.67342C33.5011 4.61121 33.443 4.56661 33.3733 4.53991C33.3035 4.51322 33.233 4.50609 33.1614 4.51856C33.0899 4.53104 33.0437 4.56932 33.0221 4.63336C32.8112 4.45174 32.6084 4.35381 32.4136 4.33958C32.2188 4.32535 32.0391 4.36811 31.8748 4.46781C31.7104 4.5675 31.5648 4.71172 31.4379 4.90053C31.311 5.08934 31.2082 5.29495 31.1295 5.51752C31.051 5.74008 31.0018 5.96719 30.9821 6.19862C30.9625 6.43013 30.9776 6.64117 31.0277 6.83167C31.0778 7.02217 31.1661 7.17805 31.2931 7.29903C31.4199 7.42014 31.5925 7.48073 31.8105 7.48073C31.9069 7.48073 31.9999 7.46114 32.0892 7.42196C32.1786 7.38273 32.2609 7.33643 32.3359 7.28303C32.4109 7.22963 32.4771 7.17352 32.5343 7.11475C32.5914 7.056 32.6361 7.00706 32.6683 6.96783C32.6932 7.09605 32.7345 7.20476 32.7916 7.29374C32.8488 7.38273 32.914 7.45585 32.9873 7.51271C33.0604 7.56964 33.1374 7.61152 33.2178 7.63829C33.2983 7.66499 33.376 7.67834 33.4511 7.67834C33.6191 7.67834 33.7762 7.62135 33.9229 7.50735C34.0693 7.3935 34.2008 7.25362 34.317 7.08805C34.4331 6.92241 34.5287 6.74797 34.6037 6.56452C34.6788 6.38113 34.7288 6.21821 34.7538 6.07569C34.7788 6.02228 34.7744 5.96624 34.7405 5.90747C34.7064 5.84872 34.6618 5.80514 34.6064 5.77654Z" fill="#0D0C23"/>
<path fill-rule="evenodd" clip-rule="evenodd" d="M44.2569 8.72566C44.2266 8.84671 44.1792 8.94918 44.1149 9.03281C44.0506 9.11651 43.9701 9.16015 43.8736 9.16374C43.8129 9.16727 43.7664 9.13521 43.7342 9.06758C43.7021 8.99988 43.6798 8.91265 43.6672 8.80584C43.6546 8.69897 43.6493 8.57962 43.6511 8.44787C43.6529 8.31613 43.6583 8.18614 43.6672 8.05791C43.6761 7.92976 43.6869 7.81035 43.6994 7.70001C43.7118 7.58955 43.7216 7.50422 43.7288 7.44364C43.8503 7.45786 43.9514 7.51032 44.0318 7.60121C44.1123 7.69202 44.1738 7.79971 44.2167 7.9244C44.2597 8.04904 44.2846 8.18349 44.2918 8.32771C44.2989 8.47193 44.2872 8.60457 44.2569 8.72566ZM42.3161 8.72566C42.2858 8.84671 42.2384 8.94918 42.174 9.03281C42.1097 9.11651 42.0294 9.16015 41.9328 9.16374C41.872 9.16727 41.8256 9.13521 41.7935 9.06758C41.7612 8.99988 41.7389 8.91265 41.7264 8.80584C41.7138 8.69897 41.7084 8.57962 41.7104 8.44787C41.712 8.31613 41.7174 8.18614 41.7264 8.05791C41.7353 7.92976 41.746 7.81035 41.7586 7.70001C41.771 7.58955 41.7809 7.50422 41.7881 7.44364C41.9096 7.45786 42.0107 7.51032 42.0909 7.60121C42.1714 7.69202 42.233 7.79971 42.276 7.9244C42.3189 8.04904 42.3438 8.18349 42.351 8.32771C42.3581 8.47193 42.3465 8.60457 42.3161 8.72566ZM40.3245 5.69147C40.3208 5.77686 40.3128 5.85256 40.3003 5.91844C40.2877 5.98444 40.2708 6.02619 40.2493 6.04401C40.21 6.0226 40.1617 5.96751 40.1046 5.87838C40.0474 5.78939 40.0028 5.68869 39.9705 5.57653C39.9385 5.46436 39.9285 5.35404 39.9411 5.24533C39.9535 5.13676 40.01 5.05225 40.11 4.99159C40.1492 4.97024 40.1831 4.97824 40.2118 5.01565C40.2405 5.05307 40.2636 5.10735 40.2816 5.17858C40.2994 5.24986 40.3118 5.33174 40.319 5.42432C40.3262 5.51696 40.3279 5.60595 40.3245 5.69147ZM39.85 6.75718C39.7946 6.81586 39.7328 6.86663 39.665 6.90939C39.597 6.95216 39.5273 6.98421 39.4559 7.00556C39.3844 7.02697 39.32 7.03226 39.2629 7.02155C39.1021 6.98956 38.9787 6.92004 38.893 6.81323C38.8071 6.70641 38.7526 6.5809 38.7294 6.43668C38.7062 6.2924 38.7088 6.13835 38.7375 5.97455C38.766 5.81074 38.8142 5.65854 38.8822 5.51784C38.9501 5.37715 39.0324 5.25604 39.1288 5.15458C39.2254 5.05307 39.3307 4.9899 39.4452 4.96489C39.4023 5.14652 39.388 5.33445 39.4023 5.52848C39.4165 5.72258 39.4631 5.90508 39.5417 6.07601C39.5916 6.17943 39.6516 6.2737 39.7213 6.35916C39.791 6.44468 39.8759 6.51767 39.976 6.57819C39.9473 6.63878 39.9053 6.69841 39.85 6.75718ZM45.7823 5.74488C45.793 5.66301 45.8091 5.57653 45.8305 5.48571C45.8519 5.39497 45.8787 5.3068 45.9109 5.22133C45.943 5.13581 45.9806 5.06194 46.0235 4.99966C46.0664 4.93738 46.112 4.89278 46.1602 4.86608C46.2084 4.83938 46.2576 4.84202 46.3076 4.87408C46.3612 4.9062 46.3943 4.97384 46.4068 5.07705C46.4193 5.1804 46.4068 5.29074 46.3693 5.40832C46.3317 5.52583 46.2648 5.63624 46.1683 5.73945C46.0718 5.84287 45.9413 5.91044 45.7769 5.9425C45.7697 5.89268 45.7715 5.82681 45.7823 5.74488ZM47.9429 5.74488C47.9536 5.66301 47.9697 5.57653 47.9911 5.48571C48.0126 5.39497 48.0395 5.3068 48.0716 5.22133C48.1037 5.13581 48.1413 5.06194 48.1841 4.99966C48.227 4.93738 48.2726 4.89278 48.3208 4.86608C48.3692 4.83938 48.4183 4.84202 48.4683 4.87408C48.5219 4.9062 48.5549 4.97384 48.5675 5.07705C48.58 5.1804 48.5675 5.29074 48.53 5.40832C48.4924 5.52583 48.4254 5.63624 48.3289 5.73945C48.2324 5.84287 48.1019 5.91044 47.9375 5.9425C47.9304 5.89268 47.9321 5.82681 47.9429 5.74488ZM49.9507 6.05737C49.9096 6.01291 49.8596 5.98173 49.8007 5.96385C49.7417 5.94609 49.6854 5.94432 49.6317 5.95856C49.5781 5.97278 49.5441 6.0102 49.5299 6.07072C49.5012 6.18471 49.4556 6.30134 49.3931 6.42055C49.3305 6.53997 49.2538 6.65301 49.1626 6.75982C49.0715 6.86663 48.9687 6.9611 48.8544 7.04297C48.7399 7.12491 48.6202 7.18366 48.4952 7.21917C48.37 7.25849 48.2664 7.26289 48.1841 7.23259C48.1019 7.20237 48.0367 7.15073 47.9885 7.07774C47.9403 7.00467 47.9054 6.91657 47.8839 6.81323C47.8626 6.71001 47.85 6.6032 47.8464 6.49273C48.0501 6.50704 48.2316 6.47057 48.3906 6.38322C48.5495 6.29599 48.6846 6.18017 48.7954 6.03595C48.9061 5.89181 48.9902 5.72976 49.0474 5.5499C49.1045 5.37003 49.1366 5.19111 49.1439 5.01301C49.1473 4.84562 49.1223 4.70404 49.0687 4.58828C49.0152 4.4726 48.9428 4.38259 48.8516 4.31855C48.7605 4.25437 48.656 4.21703 48.538 4.20633C48.4201 4.19562 48.3003 4.21175 48.1788 4.25437C48.0323 4.30433 47.9081 4.3853 47.8063 4.49747C47.7044 4.6097 47.6195 4.73975 47.5516 4.88743C47.4836 5.03531 47.43 5.19456 47.3906 5.36555C47.3513 5.53648 47.3227 5.70482 47.305 5.87039C47.2876 6.03107 47.2781 6.18485 47.276 6.33204C47.2624 6.36139 47.248 6.39087 47.2324 6.42055C47.1699 6.53997 47.0931 6.65301 47.0019 6.75982C46.9109 6.86663 46.808 6.9611 46.6937 7.04297C46.5793 7.12491 46.4596 7.18366 46.3345 7.21917C46.2093 7.25849 46.1057 7.26289 46.0235 7.23259C45.9414 7.20237 45.8761 7.15073 45.8279 7.07774C45.7797 7.00467 45.7448 6.91657 45.7233 6.81323C45.7018 6.71001 45.6893 6.6032 45.6858 6.49273C45.8894 6.50704 46.0709 6.47057 46.2299 6.38322C46.3889 6.29599 46.5239 6.18017 46.6347 6.03595C46.7455 5.89181 46.8295 5.72976 46.8867 5.5499C46.9437 5.37003 46.976 5.19111 46.9832 5.01301C46.9867 4.84562 46.9617 4.70404 46.9081 4.58828C46.8545 4.4726 46.7821 4.38259 46.6909 4.31855C46.5998 4.25437 46.4953 4.21703 46.3773 4.20633C46.2594 4.19562 46.1396 4.21175 46.0181 4.25437C45.8716 4.30433 45.7474 4.3853 45.6456 4.49747C45.5437 4.6097 45.4587 4.73975 45.3909 4.88743C45.323 5.03531 45.2694 5.19456 45.23 5.36555C45.1907 5.53648 45.1621 5.70482 45.1443 5.87039C45.1342 5.96378 45.1274 6.05431 45.1223 6.14323C45.0878 6.17251 45.0542 6.20199 45.0182 6.23093C44.8951 6.33069 44.7654 6.42055 44.6296 6.50073C44.4936 6.5809 44.3525 6.64678 44.206 6.69841C44.0594 6.75006 43.9093 6.78124 43.7557 6.79188L44.0882 3.24478C44.1095 3.16997 44.0988 3.10416 44.056 3.04717C44.0131 2.99016 43.9575 2.95099 43.8897 2.92964C43.8218 2.90822 43.7493 2.91006 43.6726 2.93493C43.5957 2.95994 43.5323 3.01693 43.4822 3.10585C43.4572 3.24125 43.4313 3.42641 43.4045 3.66144C43.3777 3.89647 43.3509 4.15292 43.3241 4.43071C43.2973 4.70851 43.2704 4.99519 43.2437 5.29074C43.2168 5.58642 43.1936 5.86239 43.174 6.11877C43.1731 6.13016 43.1723 6.14045 43.1715 6.15171C43.1402 6.17813 43.1099 6.20477 43.0775 6.23093C42.9542 6.33069 42.8245 6.42055 42.6888 6.50073C42.5529 6.5809 42.4117 6.64678 42.2653 6.69841C42.1186 6.75006 41.9685 6.78124 41.8148 6.79188L42.1473 3.24478C42.1687 3.16997 42.1581 3.10416 42.1151 3.04717C42.0722 2.99016 42.0168 2.95099 41.9489 2.92964C41.881 2.90822 41.8086 2.91006 41.7317 2.93493C41.6548 2.95994 41.5915 3.01693 41.5415 3.10585C41.5164 3.24125 41.4905 3.42641 41.4638 3.66144C41.4369 3.89647 41.41 4.15292 41.3833 4.43071C41.3564 4.70851 41.3297 4.99519 41.3028 5.29074C41.2761 5.58642 41.2528 5.86239 41.2331 6.11877C41.2328 6.12392 41.2324 6.1286 41.2321 6.13375C41.1758 6.1597 41.1147 6.18247 41.0482 6.20159C40.9802 6.22124 40.9035 6.23283 40.8177 6.23635C40.832 6.17217 40.8435 6.10094 40.8525 6.0226C40.8614 5.94432 40.8687 5.86239 40.874 5.77686C40.8793 5.69147 40.881 5.60595 40.8793 5.52048C40.8774 5.43496 40.873 5.35668 40.8659 5.28538C40.848 5.13235 40.8151 4.98719 40.7668 4.85002C40.7185 4.71299 40.6533 4.59817 40.5711 4.50547C40.4888 4.41289 40.3861 4.35055 40.2628 4.31855C40.1395 4.2865 39.9956 4.29714 39.8313 4.35055C39.588 4.31855 39.3692 4.34085 39.1744 4.41736C38.9796 4.49401 38.8107 4.60523 38.6678 4.75121C38.5248 4.89732 38.4078 5.06905 38.3166 5.26675C38.2255 5.46436 38.1647 5.66741 38.1343 5.87567C38.1214 5.96398 38.1151 6.05188 38.1132 6.13957C38.0579 6.25248 37.9974 6.35116 37.9306 6.43397C37.8359 6.5515 37.7376 6.64766 37.6358 6.72241C37.5338 6.79723 37.4328 6.85423 37.3328 6.8934C37.2327 6.93264 37.1433 6.95934 37.0648 6.9735C36.9718 6.99133 36.8825 6.99316 36.7967 6.97885C36.711 6.96469 36.6322 6.9237 36.5608 6.85599C36.5036 6.80617 36.4598 6.726 36.4295 6.6156C36.399 6.5052 36.3813 6.37975 36.3759 6.239C36.3705 6.09831 36.3759 5.95138 36.3919 5.79828C36.408 5.64519 36.4356 5.50002 36.4751 5.36291C36.5143 5.22581 36.5643 5.10295 36.6251 4.99424C36.6858 4.88574 36.7573 4.8082 36.8395 4.76192C36.8859 4.7691 36.9147 4.79661 36.9254 4.84466C36.9361 4.89278 36.9387 4.94978 36.9334 5.01565C36.928 5.0816 36.92 5.14923 36.9093 5.21862C36.8985 5.2881 36.8931 5.34604 36.8931 5.39226C36.9111 5.48842 36.9459 5.56325 36.9977 5.61666C37.0495 5.67005 37.1077 5.70129 37.172 5.71011C37.2363 5.71905 37.2997 5.70394 37.3623 5.6647C37.4248 5.62559 37.4758 5.56325 37.5151 5.47771C37.5187 5.48131 37.524 5.48307 37.5312 5.48307L37.6063 4.80467C37.6277 4.71204 37.6133 4.63017 37.5633 4.55894C37.5133 4.48772 37.4472 4.44671 37.365 4.43607C37.2613 4.2865 37.121 4.20728 36.9441 4.19833C36.7672 4.18945 36.5858 4.24732 36.4 4.37196C36.2856 4.45397 36.1846 4.56693 36.097 4.71115C36.0094 4.85544 35.938 5.01565 35.8826 5.19193C35.8271 5.3682 35.7878 5.55436 35.7647 5.75022C35.7414 5.94609 35.7369 6.13666 35.7511 6.32174C35.7654 6.50704 35.7986 6.68154 35.8504 6.84528C35.9021 7.00915 35.9746 7.14626 36.0676 7.25658C36.1462 7.35276 36.2354 7.42317 36.3356 7.4677C36.4356 7.51222 36.5402 7.53973 36.6492 7.55044C36.7582 7.56108 36.8664 7.55661 36.9736 7.53709C37.0808 7.51758 37.1828 7.49 37.2792 7.45428C37.4043 7.40806 37.533 7.34923 37.6653 7.278C37.7974 7.20685 37.9243 7.12131 38.0459 7.02155C38.1097 6.9691 38.1714 6.91189 38.2309 6.85056C38.258 6.91752 38.2882 6.98232 38.3247 7.04297C38.4212 7.20319 38.5516 7.33323 38.716 7.43293C38.8803 7.53262 39.0824 7.5806 39.3219 7.57715C39.5793 7.57355 39.8169 7.50863 40.0349 7.38216C40.2529 7.25584 40.4316 7.06961 40.5711 6.82394C40.7799 6.82394 40.9852 6.78963 41.1872 6.72152C41.1855 6.74308 41.1839 6.76578 41.1823 6.78659C41.168 6.97534 41.1607 7.10349 41.1607 7.17119C41.1572 7.28871 41.1493 7.43381 41.1367 7.60649C41.1241 7.77924 41.1161 7.96086 41.1126 8.15138C41.109 8.34188 41.1161 8.53421 41.134 8.72838C41.152 8.92241 41.1894 9.09875 41.2466 9.25726C41.3037 9.41565 41.385 9.5501 41.4905 9.66057C41.5959 9.77091 41.7345 9.83685 41.9061 9.8582C42.0883 9.88307 42.2455 9.85102 42.3778 9.76203C42.51 9.67298 42.6173 9.55105 42.6996 9.39613C42.7817 9.24113 42.8398 9.06222 42.8737 8.85924C42.9077 8.65627 42.9175 8.45235 42.9032 8.24754C42.8889 8.04274 42.8514 7.84959 42.7906 7.66802C42.7298 7.48634 42.6458 7.33676 42.5386 7.21917C42.603 7.20148 42.6798 7.16768 42.7692 7.11772C42.8585 7.06791 42.9506 7.0118 43.0453 6.94945C43.0686 6.93413 43.0915 6.918 43.1148 6.90228C43.106 7.02847 43.1016 7.11847 43.1016 7.17119C43.0981 7.28871 43.0901 7.43381 43.0775 7.60649C43.065 7.77924 43.057 7.96086 43.0534 8.15138C43.0499 8.34188 43.057 8.53421 43.0748 8.72838C43.0927 8.92241 43.1302 9.09875 43.1873 9.25726C43.2445 9.41565 43.3259 9.5501 43.4313 9.66057C43.5367 9.77091 43.6752 9.83685 43.8468 9.8582C44.029 9.88307 44.1864 9.85102 44.3187 9.76203C44.4508 9.67298 44.558 9.55105 44.6403 9.39613C44.7225 9.24113 44.7805 9.06222 44.8146 8.85924C44.8485 8.65627 44.8582 8.45235 44.8441 8.24754C44.8297 8.04274 44.7922 7.84959 44.7315 7.66802C44.6707 7.48634 44.5867 7.33676 44.4794 7.21917C44.5438 7.20148 44.6207 7.16768 44.71 7.11772C44.7994 7.06791 44.8913 7.0118 44.9861 6.94945C45.0354 6.91705 45.0843 6.88364 45.133 6.84928C45.1515 7.02346 45.1911 7.17621 45.2541 7.3047C45.331 7.46146 45.4355 7.5825 45.5678 7.66802C45.6999 7.75341 45.8555 7.80066 46.0343 7.80953C46.213 7.81835 46.4077 7.78547 46.6187 7.71066C46.7758 7.65373 46.9126 7.5825 47.0288 7.49704C47.1449 7.41151 47.2495 7.30735 47.3424 7.18455C47.3478 7.17743 47.3528 7.1697 47.3581 7.16252C47.3747 7.2124 47.393 7.26031 47.4148 7.3047C47.4917 7.46146 47.5962 7.5825 47.7285 7.66802C47.8606 7.75341 48.0162 7.80066 48.1949 7.80953C48.3736 7.81835 48.5684 7.78547 48.7793 7.71066C48.9366 7.65373 49.0733 7.5825 49.1895 7.49704C49.3056 7.41151 49.41 7.30735 49.5031 7.18455C49.5959 7.06161 49.6807 6.92004 49.7577 6.75982C49.8346 6.59954 49.9122 6.41622 49.991 6.20958C50.0053 6.15266 49.9917 6.10189 49.9507 6.05737Z" fill="#0D0C23"/>
</g>
<defs>
<clipPath id="clip0_3_22">
<rect width="50" height="10.9499" fill="white"/>
</clipPath>
</defs>
</svg>
