<svg width="10" height="10" viewBox="0 0 10 10" fill="none" xmlns="http://www.w3.org/2000/svg">
<g clip-path="url(#clip0_3_107)">
<path d="M7.79454 3.24704C7.95725 3.40976 7.95725 3.67358 7.79454 3.8363L6.63083 5L7.79454 6.16371C7.95725 6.32642 7.95725 6.59025 7.79454 6.75296C7.63179 6.91567 7.368 6.91567 7.20525 6.75296L6.04158 5.58925L4.87787 6.75296C4.71512 6.91567 4.45133 6.91567 4.28858 6.75296C4.12588 6.59025 4.12588 6.32642 4.28858 6.16371L5.45229 5L4.28858 3.8363C4.12588 3.67358 4.12588 3.40976 4.28858 3.24704C4.45133 3.08432 4.71512 3.08432 4.87787 3.24704L6.04158 4.41075L7.20525 3.24704C7.368 3.08432 7.63179 3.08432 7.79454 3.24704Z" fill="#4D0000" fill-opacity="0.5"/>
<path fill-rule="evenodd" clip-rule="evenodd" d="M2.62899 1.47676C2.94475 1.07078 3.43026 0.833328 3.94458 0.833328H8.74988C9.09829 0.833328 9.42096 0.989466 9.65058 1.24777C9.87875 1.50447 9.99988 1.84315 9.99988 2.18749V7.81249C9.99988 8.15683 9.87875 8.49554 9.65058 8.75224C9.42096 9.01054 9.09829 9.16666 8.74988 9.16666H3.94458C3.43026 9.16666 2.94475 8.9292 2.62899 8.52324L0.286624 5.51162C0.0525712 5.2107 0.0525703 4.78929 0.286624 4.48837L2.62899 1.47676ZM3.94458 1.66666C3.68742 1.66666 3.44467 1.78539 3.28679 1.98838L0.944417 4.99999L3.28679 8.01162C3.44467 8.21462 3.68742 8.33333 3.94458 8.33333H8.74988C8.8435 8.33333 8.94475 8.29191 9.02771 8.19858C9.11212 8.10366 9.16654 7.96545 9.16654 7.81249V2.18749C9.16654 2.03455 9.11212 1.89633 9.02771 1.8014C8.94475 1.70807 8.8435 1.66666 8.74988 1.66666H3.94458Z" fill="#4D0000" fill-opacity="0.5"/>
</g>
<defs>
<clipPath id="clip0_3_107">
<rect width="10" height="10" fill="white"/>
</clipPath>
</defs>
</svg>
