<svg width="10" height="11" viewBox="0 0 10 11" fill="none" xmlns="http://www.w3.org/2000/svg">
<path fill-rule="evenodd" clip-rule="evenodd" d="M9.98387 3.09375V9.625C9.98387 9.98967 9.84113 10.3394 9.58705 10.5973C9.33297 10.8551 8.98836 11 8.62903 11H6.59677V10.3125H8.62903C8.80869 10.3125 8.981 10.2401 9.10804 10.1111C9.23508 9.9822 9.30645 9.80734 9.30645 9.625V3.09375H7.95161C7.68212 3.09375 7.42366 2.9851 7.2331 2.7917C7.04254 2.59831 6.93548 2.336 6.93548 2.0625V0.6875H3.20968C3.03001 0.6875 2.85771 0.759933 2.73067 0.888864C2.60363 1.0178 2.53226 1.19266 2.53226 1.375V7.5625H1.85484V1.375C1.85484 1.01033 1.99758 0.660591 2.25166 0.402728C2.50574 0.144866 2.85035 0 3.20968 0L6.93548 0L9.98387 3.09375ZM0.978258 9.06744V10.8962H0.5V8.14688H1.046L1.81826 9.93163H1.83587L2.60813 8.14688H3.15006V10.8962H2.66503V9.06744H2.63929L1.99845 10.5518H1.6489L1.004 9.06675H0.978258V9.06744ZM3.63306 10.8962V8.14688H4.62142C4.89645 8.14688 5.12339 8.2005 5.30223 8.30775C5.48039 8.41569 5.61384 8.57106 5.70123 8.77525C5.78929 8.97944 5.834 9.22556 5.834 9.51431C5.834 9.80444 5.78929 10.0533 5.70123 10.2596C5.61248 10.4665 5.47768 10.6239 5.29816 10.7333C5.11932 10.8419 4.89374 10.8962 4.62074 10.8962H3.63306ZM4.54961 8.59031H4.1689V10.4514H4.54961C4.67561 10.4514 4.78468 10.4321 4.87748 10.395C4.96671 10.3586 5.0448 10.2988 5.10374 10.2218C5.16718 10.1353 5.21238 10.0366 5.23652 9.93163C5.267 9.81612 5.2819 9.68069 5.2819 9.52462C5.28681 9.3486 5.25995 9.17315 5.20264 9.00694C5.15899 8.87881 5.07464 8.76902 4.96284 8.69481C4.85513 8.62469 4.71761 8.59031 4.54961 8.59031Z" fill="#002C12" fill-opacity="0.5"/>
</svg>
