<svg width="11" height="11" viewBox="0 0 11 11" fill="none" xmlns="http://www.w3.org/2000/svg">
<path d="M5.5 9.625C7.77817 9.625 9.625 7.77817 9.625 5.5C9.625 3.22183 7.77817 1.375 5.5 1.375C3.22183 1.375 1.375 3.22183 1.375 5.5C1.375 7.77817 3.22183 9.625 5.5 9.625Z" stroke="#002C12" stroke-opacity="0.5" stroke-miterlimit="10"/>
<path d="M5.5 6.01562C5.78477 6.01562 6.01562 5.78477 6.01562 5.5C6.01562 5.21523 5.78477 4.98438 5.5 4.98438C5.21523 4.98438 4.98438 5.21523 4.98438 5.5C4.98438 5.78477 5.21523 6.01562 5.5 6.01562Z" fill="#002C12" fill-opacity="0.5"/>
<path d="M5.5 3.95312C5.78477 3.95312 6.01562 3.72227 6.01562 3.4375C6.01562 3.15273 5.78477 2.92188 5.5 2.92188C5.21523 2.92188 4.98438 3.15273 4.98438 3.4375C4.98438 3.72227 5.21523 3.95312 5.5 3.95312Z" fill="#002C12" fill-opacity="0.5"/>
<path d="M5.5 8.07812C5.78477 8.07812 6.01562 7.84727 6.01562 7.5625C6.01562 7.27773 5.78477 7.04688 5.5 7.04688C5.21523 7.04688 4.98438 7.27773 4.98438 7.5625C4.98438 7.84727 5.21523 8.07812 5.5 8.07812Z" fill="#002C12" fill-opacity="0.5"/>
</svg>
