<svg width="16" height="16" viewBox="0 0 16 16" fill="none" xmlns="http://www.w3.org/2000/svg">
<path d="M10.5 0.0833435H5.5C2.51667 0.0833435 0.0833359 2.51668 0.0833359 5.50001V10.5C0.0833359 13.4833 2.51667 15.9167 5.5 15.9167H10.5C13.4833 15.9167 15.9167 13.4833 15.9167 10.5V5.50001C15.9167 2.51668 13.4833 0.0833435 10.5 0.0833435ZM11.3333 8.83334H8.83334V11.3333C8.83334 11.7917 8.45834 12.1667 8 12.1667C7.54167 12.1667 7.16667 11.7917 7.16667 11.3333V8.83334H4.66667C4.20834 8.83334 3.83334 8.45834 3.83334 8.00001C3.83334 7.54168 4.20834 7.16668 4.66667 7.16668H7.16667V4.66668C7.16667 4.20834 7.54167 3.83334 8 3.83334C8.45834 3.83334 8.83334 4.20834 8.83334 4.66668V7.16668H11.3333C11.7917 7.16668 12.1667 7.54168 12.1667 8.00001C12.1667 8.45834 11.7917 8.83334 11.3333 8.83334Z" fill="#40891E"/>
</svg>
