<svg width="17" height="17" viewBox="0 0 17 17" fill="none" xmlns="http://www.w3.org/2000/svg">
<g clip-path="url(#clip0_1_15)">
<path d="M8.49996 0C3.80568 0 9.91821e-05 3.80564 9.91821e-05 8.49992C9.91821e-05 13.194 3.80562 17 8.49984 17C13.1941 17 17 13.194 17 8.49992C17 3.80564 13.1941 0 8.49996 0ZM12.0858 9.43496H9.35057V12.2948C9.3504 12.7744 8.96167 13.1631 8.48199 13.1631C8.00215 13.1631 7.61342 12.7744 7.61342 12.2946V9.43496H4.95096C4.47122 9.43479 4.08267 9.04606 4.08238 8.56638C4.08238 8.08682 4.47128 7.69792 4.95096 7.69781L7.61336 7.69798V5.15985C7.61336 4.68011 8.00226 4.29127 8.48182 4.29127C8.96167 4.29127 9.35057 4.68017 9.3504 5.15985L9.35057 7.69775L12.0856 7.69803C12.5653 7.69775 12.9543 8.08676 12.9541 8.56661C12.9543 9.04635 12.5653 9.43496 12.0858 9.43496Z" fill="#43782B"/>
</g>
<defs>
<clipPath id="clip0_1_15">
<rect width="17" height="17" fill="white"/>
</clipPath>
</defs>
</svg>
