<svg width="16" height="17" viewBox="0 0 16 17" fill="none" xmlns="http://www.w3.org/2000/svg">
<path d="M10.5 0.593689H5.5C2.51667 0.593689 0.0833359 3.02702 0.0833359 6.01035V11.0104C0.0833359 13.9937 2.51667 16.427 5.5 16.427H10.5C13.4833 16.427 15.9167 13.9937 15.9167 11.0104V6.01035C15.9167 3.02702 13.4833 0.593689 10.5 0.593689ZM11.3333 9.34369H8.83334V11.8437C8.83334 12.302 8.45834 12.677 8 12.677C7.54167 12.677 7.16667 12.302 7.16667 11.8437V9.34369H4.66667C4.20834 9.34369 3.83334 8.96869 3.83334 8.51035C3.83334 8.05202 4.20834 7.67702 4.66667 7.67702H7.16667V5.17702C7.16667 4.71869 7.54167 4.34369 8 4.34369C8.45834 4.34369 8.83334 4.71869 8.83334 5.17702V7.67702H11.3333C11.7917 7.67702 12.1667 8.05202 12.1667 8.51035C12.1667 8.96869 11.7917 9.34369 11.3333 9.34369Z" fill="#002C12"/>
</svg>
